<?xml version="1.0" encoding="UTF-8"?>
<svg version="1.1" xmlns="http://www.w3.org/2000/svg" width="512" height="512">
<path d="M0 0 C0.91523438 0.84304687 1.83046875 1.68609375 2.7734375 2.5546875 C5.02655544 4.61835409 7.30988353 6.63167578 9.625 8.625 C10.87797389 9.72579083 12.12814704 10.82978085 13.375 11.9375 C13.93445313 12.42992187 14.49390625 12.92234375 15.0703125 13.4296875 C37.35256421 34.26100189 48.21231127 67.05033329 49.67993164 96.88354492 C49.84556853 101.90212783 49.84934137 106.91682642 49.8125 111.9375 C49.80793793 113.26812973 49.80793793 113.26812973 49.80328369 114.62564087 C49.56232497 162.44202426 35.36989394 210.61514951 2.84277344 246.49682617 C1.375 247.9375 1.375 247.9375 -1.47265625 249.75390625 C-4.40813029 252.73200061 -4.19933552 254.89263837 -4.2734375 258.95898438 C-4.26570313 259.83876953 -4.25796875 260.71855469 -4.25 261.625 C-4.25 269.38731941 -5.11750674 275.92251349 -8.625 282.9375 C-8.99940525 286.65931063 -9.34354177 290.3784191 -9.61132812 294.109375 C-10.26102153 301.10076596 -12.70743632 305.70166974 -18.1875 310.25 C-18.76628906 310.74113281 -19.34507812 311.23226563 -19.94140625 311.73828125 C-22.8029657 313.77656142 -25.33284731 314.06116805 -28.73164749 314.04823208 C-29.57135188 314.04753953 -30.41105628 314.04684699 -31.27620625 314.04613346 C-32.19884542 314.04029037 -33.12148459 314.03444728 -34.07208252 314.02842712 C-35.05228198 314.02630944 -36.03248144 314.02419176 -37.04238391 314.02200991 C-40.34241322 314.01392216 -43.6423771 313.99888674 -46.94238281 313.98413086 C-49.30269214 313.97734324 -51.66300317 313.97113138 -54.02331543 313.9654541 C-57.79993289 313.95620423 -61.5765445 313.94645645 -65.35315561 313.93487632 C-74.7303088 313.90612956 -84.10736299 313.89432378 -93.48455811 313.89344788 C-94.16313249 313.89335417 -94.84170687 313.89326046 -95.54084411 313.89316391 C-101.13066654 313.89244187 -106.72048892 313.8924387 -112.31031138 313.892664 C-117.347174 313.89282522 -122.384036 313.89231333 -127.42089844 313.89086914 C-128.49804486 313.89057215 -128.49804486 313.89057215 -129.59695181 313.89026917 C-141.20711274 313.88607965 -152.81696941 313.84958034 -164.42702332 313.80191296 C-176.36135652 313.75374742 -188.29530163 313.74390742 -200.22970843 313.76825243 C-206.92467737 313.78076469 -213.61849507 313.77437397 -220.3133316 313.72556877 C-226.62082046 313.67997898 -232.92658585 313.68157133 -239.2341156 313.71831512 C-241.54025135 313.72355732 -243.84650159 313.71192747 -246.15244293 313.68152809 C-259.15897787 313.52069668 -268.39466354 314.16073232 -278.69465256 322.5972681 C-281.34875807 324.71688788 -283.42567983 325.89725551 -286.625 326.9375 C-285.47959775 328.25037621 -284.33366567 329.56279021 -283.1875 330.875 C-282.23037109 331.97134766 -282.23037109 331.97134766 -281.25390625 333.08984375 C-280.39958541 334.05889353 -279.53848825 335.02401175 -278.625 335.9375 C-278.3125 338.8125 -278.3125 338.8125 -278.625 341.9375 C-280.25 343.9375 -280.25 343.9375 -282.625 344.9375 C-287.1496535 344.08912747 -289.63778187 342.38429015 -292.625 338.9375 C-295.24434309 340.10165249 -296.88759816 341.18627721 -299 343.1875 C-301.625 344.9375 -301.625 344.9375 -304.875 344.3125 C-307.625 342.9375 -307.625 342.9375 -308.625 340.9375 C-309.759375 341.329375 -310.89375 341.72125 -312.0625 342.125 C-341.55832942 351.89491195 -372.35030811 355.91927358 -401.47363281 342.05761719 C-409.53696424 337.95133048 -416.877738 332.97852685 -423.625 326.9375 C-424.51832031 326.13828125 -425.41164063 325.3390625 -426.33203125 324.515625 C-441.39385841 310.27535205 -450.94966003 291.53860489 -457 271.875 C-457.22655273 271.14579346 -457.45310547 270.41658691 -457.68652344 269.6652832 C-461.87920451 255.05552346 -463.18181583 240.32238747 -463.0625 225.1875 C-463.05945862 224.36255035 -463.05641724 223.53760071 -463.05328369 222.68765259 C-462.98144221 209.46163538 -462.19696799 196.74256425 -458.625 183.9375 C-458.42132813 183.19918945 -458.21765625 182.46087891 -458.0078125 181.70019531 C-450.46235488 155.55891081 -433.62388006 129.97522927 -410.625 114.9375 C-409.965 114.9375 -409.305 114.9375 -408.625 114.9375 C-408.63166183 114.0679921 -408.63832367 113.19848419 -408.64518738 112.30262756 C-408.7054803 104.07913637 -408.75106646 95.85572019 -408.78043652 87.63205814 C-408.79604394 83.40491818 -408.81719136 79.17796197 -408.85131836 74.95092773 C-408.88408863 70.86603952 -408.90188998 66.78132727 -408.90963173 62.69631767 C-408.91514371 61.14351065 -408.92590677 59.59071246 -408.94219017 58.03798103 C-409.05407778 46.91919585 -408.79389773 36.35774843 -400.625 27.9375 C-395.4858058 23.98584868 -390.93250556 21.81102856 -384.40025711 21.81445217 C-383.13951351 21.8114656 -383.13951351 21.8114656 -381.85330033 21.80841869 C-380.93501506 21.81133153 -380.01672978 21.81424437 -379.07061768 21.81724548 C-377.60153761 21.81596385 -377.60153761 21.81596385 -376.10277915 21.81465632 C-372.81231609 21.81300572 -369.5219037 21.81851607 -366.23144531 21.82397461 C-363.87620546 21.8242566 -361.52096551 21.82409852 -359.16572571 21.8235321 C-352.76326653 21.82324458 -346.360826 21.82913403 -339.95837116 21.83610606 C-333.94783861 21.84219121 -327.93730384 21.84272866 -321.92676875 21.84375793 C-310.0216509 21.84594661 -298.11653991 21.85260172 -286.21142578 21.86206055 C-274.64664748 21.87123942 -263.08187105 21.87831793 -251.51708984 21.88256836 C-250.44782827 21.88296244 -250.44782827 21.88296244 -249.35696545 21.88336449 C-245.78085497 21.88466953 -242.20474448 21.88593324 -238.62863398 21.88717639 C-208.96075144 21.89754327 -179.29287605 21.91523093 -149.625 21.9375 C-149.33310791 21.01171143 -149.04121582 20.08592285 -148.74047852 19.13208008 C-143.12303364 3.04447531 -128.09679496 -8.56384193 -113.375 -15.75 C-75.1183542 -32.08429821 -30.76137309 -27.8498028 0 0 Z " fill="#2828BC" transform="translate(462.625,101.0625)"/>
<path d="M0 0 C5.2039573 0.23000916 8.26633586 3.29735227 12.0625 6.5 C13.4063999 7.60426829 14.7514648 8.70712021 16.09765625 9.80859375 C16.76039551 10.35370605 17.42313477 10.89881836 18.10595703 11.46044922 C22.61854937 15.12845738 27.31959352 18.55097228 32 22 C32.64098633 22.47421387 33.28197266 22.94842773 33.94238281 23.43701172 C36.00160815 24.96025429 38.06286446 26.48069999 40.125 28 C40.77726563 28.48154541 41.42953125 28.96309082 42.1015625 29.45922852 C47.98440465 33.77710378 51.68557034 35.06756849 59 34 C62.38458157 32.48173912 65.10726843 30.30218987 68 28 C68.94230469 27.28457031 69.88460937 26.56914062 70.85546875 25.83203125 C73.01916607 24.1843959 75.17429278 22.52960139 77.3203125 20.859375 C81.48950784 17.61488286 85.68070246 14.3994441 89.875 11.1875 C90.57625 10.64859131 91.2775 10.10968262 92 9.55444336 C93.34722652 8.52241278 94.6983485 7.4954433 96.05371094 6.47412109 C97.35577325 5.48793792 98.64559601 4.48539211 99.92285156 3.46728516 C104.48164926 -0.05189316 104.48164926 -0.05189316 106.96069336 0.19628906 C109.28821157 1.11358703 110.91351437 2.25062924 112.87109375 3.80859375 C113.60368408 4.38577148 114.33627441 4.96294922 115.09106445 5.55761719 C115.86538818 6.17797852 116.63971191 6.79833984 117.4375 7.4375 C119.06487407 8.72294761 120.69247955 10.0081023 122.3203125 11.29296875 C123.11856445 11.92638184 123.91681641 12.55979492 124.73925781 13.21240234 C127.74208385 15.58677515 130.77288977 17.92302793 133.8125 20.25 C134.83988281 21.03890625 135.86726563 21.8278125 136.92578125 22.640625 C137.94027344 23.41921875 138.95476562 24.1978125 140 25 C142.16710848 26.66609254 144.33353739 28.33306777 146.5 30 C147.58853556 30.83724752 148.67707721 31.67448713 149.765625 32.51171875 C151.88071753 34.13866417 153.99519452 35.7663998 156.109375 37.39453125 C162.23103457 42.1076 168.36160412 46.80874598 174.5 51.5 C181.67781092 56.98562442 188.84245047 62.48796751 196 68 C198.16644651 69.66695292 200.33322497 71.33347413 202.5 73 C203.58333938 73.83332547 204.66667272 74.6666588 205.75 75.5 C206.28625 75.9125 206.8225 76.325 207.375 76.75 C209 78 210.625 79.25 212.25 80.5 C213.05473755 81.1189917 213.05473755 81.1189917 213.87573242 81.75048828 C214.95672121 82.58206811 216.03761349 83.41377342 217.1184082 84.24560547 C219.86182666 86.35681792 222.60699919 88.46567891 225.35546875 90.5703125 C231.96630658 95.63659807 238.52162617 100.764655 245 106 C242.97155033 111.27396915 241.21254366 114.99836966 236.25184989 118.08921486 C233.35866466 119.25939504 231.0294667 119.25446351 227.90790176 119.26006222 C226.02232225 119.2706606 226.02232225 119.2706606 224.09865022 119.2814731 C222.70104075 119.27922167 221.30343158 119.27677516 219.90582275 119.27415466 C218.42314119 119.27860605 216.940462 119.28391977 215.45778632 119.29002339 C211.37768377 119.30422588 207.29765732 119.30586625 203.21753359 119.30542648 C198.81930237 119.30707271 194.42110268 119.32013562 190.02288818 119.33161926 C180.40306044 119.35448361 170.78325474 119.36239143 161.16340351 119.36744571 C155.15775791 119.37070109 149.15211872 119.37722262 143.14647675 119.3844471 C126.52147248 119.40401498 109.89647419 119.42041806 93.27145767 119.42332363 C92.2072706 119.4235112 91.14308353 119.42369877 90.04664837 119.42389202 C87.88923883 119.42425828 85.7318293 119.42462198 83.57441977 119.42498314 C82.50346476 119.42516595 81.43250975 119.42534876 80.32910156 119.42553711 C79.25684073 119.42571766 78.18457991 119.42589821 77.07982633 119.42608423 C59.70340641 119.42962624 42.32711039 119.45664949 24.95073345 119.494035 C7.11444581 119.53210318 -10.72178034 119.551481 -28.55810952 119.55178314 C-38.57409773 119.55236805 -48.58993816 119.56088166 -58.60588837 119.58978081 C-67.13437313 119.61427479 -75.6626562 119.62159101 -84.19116661 119.60653328 C-88.54260567 119.59935621 -92.89364631 119.60025595 -97.24504089 119.62294388 C-101.23011482 119.64352276 -105.21448375 119.64094426 -109.19954994 119.62006903 C-110.63967613 119.61657199 -112.07985306 119.62149341 -113.51991269 119.63577347 C-121.50824091 119.70987051 -127.89542873 119.61351776 -134 114 C-137.03410369 110.23035603 -137.03410369 110.23035603 -136.94921875 107.16796875 C-135.46877284 103.78670339 -132.6365399 102.01918859 -129.75 99.875 C-129.12101807 99.39490479 -128.49203613 98.91480957 -127.84399414 98.42016602 C-126.53797196 97.42425254 -125.22876508 96.4325024 -123.91650391 95.44482422 C-121.60640898 93.7032775 -119.31693539 91.93611611 -117.02832031 90.16650391 C-114.89280079 88.51668726 -112.75067316 86.87555398 -110.60888672 85.23388672 C-107.90350188 83.15907413 -105.20195834 81.07927147 -102.5 79 C-101.41668482 78.16664307 -100.33335149 77.33330973 -99.25 76.5 C-98.71375 76.0875 -98.1775 75.675 -97.625 75.25 C-96 74 -94.375 72.75 -92.75 71.5 C-91.9461084 70.88161255 -91.9461084 70.88161255 -91.12597656 70.25073242 C-90.03941221 69.41492624 -88.95282355 68.57915165 -87.86621094 67.7434082 C-85.20711452 65.69816364 -82.5485006 63.65230009 -79.890625 61.60546875 C-75.27764215 58.05393096 -70.6634001 54.50429718 -66.03515625 50.97265625 C-58.64090005 45.32987611 -51.26911894 39.66150833 -43.9375 33.9375 C-37.70260386 29.07156583 -31.41320864 24.2889524 -25.07177734 19.56298828 C-19.68785358 15.54020669 -14.36708412 11.43922246 -9.0625 7.3125 C-8.27423828 6.69955078 -7.48597656 6.08660156 -6.67382812 5.45507812 C-3.22161131 2.8609077 -3.22161131 2.8609077 0 0 Z " fill="#8298FD" transform="translate(202,266)"/>
<path d="M0 0 C0.73154297 0.00451172 1.46308594 0.00902344 2.21679688 0.01367188 C3.99873419 0.02531852 5.78062863 0.04324809 7.5625 0.0625 C7.5625 0.3925 7.5625 0.7225 7.5625 1.0625 C6.71429688 1.19785156 5.86609375 1.33320312 4.9921875 1.47265625 C-12.61982176 4.70475026 -29.81316611 14.29647663 -40.4375 29.0625 C-53.06439553 47.38004671 -58.5829524 68.19088902 -54.75 90.3125 C-54.35352543 91.90660119 -53.91202313 93.48986575 -53.4375 95.0625 C-53.11910156 96.13628906 -52.80070312 97.21007812 -52.47265625 98.31640625 C-47.9714502 112.12313592 -39.84751367 126.78915755 -27.4375 135.0625 C-28.70746655 138.87239965 -30.19654244 139.60365828 -33.4375 141.9375 C-34.53981078 142.74246589 -35.64132818 143.54851899 -36.7421875 144.35546875 C-37.33870117 144.79036621 -37.93521484 145.22526367 -38.54980469 145.67333984 C-41.92121887 148.15437279 -45.24011449 150.70389785 -48.5625 153.25 C-49.27849365 153.79760986 -49.9944873 154.34521973 -50.73217773 154.90942383 C-56.01073924 158.95249044 -61.25856887 163.03397556 -66.5 167.125 C-72.74363774 171.99760937 -79.04203785 176.78649167 -85.39208984 181.51928711 C-92.78837055 187.04588625 -100.0529693 192.74008185 -107.33056641 198.42138672 C-112.34593893 202.32791442 -117.38648907 206.20219285 -122.4375 210.0625 C-123.08976563 210.64644531 -123.74203125 211.23039063 -124.4140625 211.83203125 C-127.3492299 213.61693034 -129.05038021 213.59003658 -132.4375 213.0625 C-134.84281382 211.51391363 -136.84915564 210.0303388 -139 208.1875 C-140.23893628 207.1697847 -141.4785344 206.15287464 -142.71875 205.13671875 C-143.34007812 204.62028809 -143.96140625 204.10385742 -144.6015625 203.57177734 C-147.34938275 201.31286447 -150.17067503 199.15528624 -153 197 C-154.07964984 196.17216543 -155.15907724 195.34404069 -156.23828125 194.515625 C-156.7688916 194.10892578 -157.29950195 193.70222656 -157.84619141 193.28320312 C-160.46287778 191.27592606 -163.07470539 189.26233871 -165.6875 187.25 C-171.49501181 182.78028843 -177.31683042 178.32938198 -183.13964844 173.87963867 C-188.46237013 169.8110459 -193.77420726 165.72863851 -199.08203125 161.640625 C-201.51284174 159.77065857 -203.94859035 157.90728955 -206.38671875 156.046875 C-213.78630558 150.40034407 -221.1632477 144.7280161 -228.5 139 C-234.10250625 134.62760533 -239.73937662 130.30952208 -245.4375 126.0625 C-251.90566209 121.2415396 -258.28666006 116.31688601 -264.64526367 111.35253906 C-271.89139749 105.69785678 -279.1935147 100.11816053 -286.50048828 94.54248047 C-290.44197385 91.53097486 -294.37134209 88.50375904 -298.30078125 85.4765625 C-300.50422122 83.78076437 -302.70967742 82.08788757 -304.91796875 80.3984375 C-305.49643555 79.9552417 -306.07490234 79.5120459 -306.67089844 79.05541992 C-308.2682881 77.83174621 -309.8665354 76.60919227 -311.46484375 75.38671875 C-314.51173663 73.0044569 -317.47926844 70.55341033 -320.4375 68.0625 C-320.02068127 63.1996148 -318.06765855 61.19763693 -314.4375 58.0625 C-309.77665915 54.41438894 -305.55285347 54.6357849 -299.88348389 54.67050171 C-298.91619897 54.66456045 -297.94891406 54.65861919 -296.95231748 54.65249789 C-293.70865487 54.63617722 -290.46537463 54.64115873 -287.22167969 54.64599609 C-284.89746664 54.63861785 -282.57325748 54.6299134 -280.24905396 54.61997986 C-273.93541452 54.59662927 -267.62187335 54.59150594 -261.30819607 54.58932066 C-255.37861458 54.58424048 -249.44909565 54.56485624 -243.5195469 54.54528125 C-231.77476345 54.50688856 -220.02998865 54.48107111 -208.28515625 54.46386719 C-196.87954494 54.4471198 -185.47395246 54.42693449 -174.06835938 54.40039062 C-173.36530744 54.3987572 -172.6622555 54.39712378 -171.93789896 54.39544086 C-164.26803967 54.37748602 -156.59818483 54.35814237 -148.92833328 54.33713722 C-148.25497716 54.3352958 -147.58162104 54.33345438 -146.88786019 54.33155716 C-143.5319112 54.32235613 -140.17596258 54.31304565 -136.82001424 54.30361044 C-128.95164802 54.28205875 -121.08330101 54.2668236 -113.21491194 54.25677085 C-108.33322736 54.24977764 -103.45155659 54.23890134 -98.56988144 54.22712898 C-96.29659431 54.22255205 -94.02330295 54.21971913 -91.75001144 54.21870613 C-88.66117267 54.21714614 -85.57240598 54.20959868 -82.48358154 54.20053101 C-81.11567101 54.20213338 -81.11567101 54.20213338 -79.72012591 54.20376813 C-75.76262466 54.58235251 -75.76262466 54.58235251 -72.4375 53.0625 C-72.2761942 49.99768979 -72.45599759 48.00700722 -73.4375 45.0625 C-70.29502341 37.16028899 -64.98880108 30.40839908 -59.4375 24.0625 C-58.88320313 23.42441406 -58.32890625 22.78632812 -57.7578125 22.12890625 C-43.46752816 6.77881613 -20.48216637 -0.24361223 0 0 Z " fill="#B6C4FE" transform="translate(385.4375,77.9375)"/>
<path d="M0 0 C19.04829036 8.39342475 33.27783646 33.28336061 40.55859375 51.90625 C58.17598047 99.32087772 50.81510418 157.93209589 30.12890625 203.17578125 C23.98205998 216.12119892 16.64829619 228.29371966 7.3125 239.1875 C6.79018799 239.79924072 6.26787598 240.41098145 5.72973633 241.04125977 C3.1360833 243.96497705 0.58134401 246.34569302 -2.61433411 248.60566711 C-3.24751462 249.05447392 -3.88069513 249.50328074 -4.53306293 249.96568775 C-5.01715217 250.30701079 -5.5012414 250.64833384 -6 251 C-6.00423194 250.38762765 -6.00846388 249.7752553 -6.01282406 249.14432621 C-6.11599477 234.26443743 -6.22461187 219.38459596 -6.33933926 204.50479221 C-6.39468764 197.30911976 -6.44817222 190.11344235 -6.49731445 182.91772461 C-6.54013658 176.64812197 -6.58640949 170.37855608 -6.63687855 164.10901016 C-6.66349547 160.78736543 -6.68783428 157.46572899 -6.70907402 154.14404488 C-6.7330399 150.44176237 -6.76310479 146.73957783 -6.79467773 143.03735352 C-6.8004332 141.92821091 -6.80618866 140.8190683 -6.81211853 139.67631531 C-6.82680176 138.17232681 -6.82680176 138.17232681 -6.84178162 136.63795471 C-6.84823417 135.76132958 -6.85468672 134.88470446 -6.8613348 133.98151493 C-6.78235919 131.99896763 -6.78235919 131.99896763 -8 131 C-9.99958364 130.95919217 -12.00045254 130.95745644 -14 131 C-15.23824229 133.47648458 -15.1384648 135.13891847 -15.15821838 137.9100647 C-15.1680072 138.94775497 -15.17779602 139.98544525 -15.18788147 141.05458069 C-15.19363693 142.19753098 -15.1993924 143.34048126 -15.20532227 144.51806641 C-15.21522186 145.71804764 -15.22512146 146.91802887 -15.23532104 148.15437317 C-15.26154258 151.44959893 -15.28339064 154.74480002 -15.30332303 158.04006624 C-15.32516773 161.48209033 -15.35256382 164.92407004 -15.37937927 168.36605835 C-15.42932671 174.88604706 -15.47425791 181.40606038 -15.51740164 187.92609727 C-15.56675651 195.34803893 -15.62168111 202.76993607 -15.67708123 210.19183469 C-15.79093275 225.461182 -15.89776487 240.73057023 -16 256 C-17.41323133 255.06818702 -18.82506434 254.13425312 -20.23632812 253.19946289 C-21.02269653 252.67961319 -21.80906494 252.15976349 -22.6192627 251.62416077 C-26.37700958 249.06059147 -29.93312521 246.25765182 -33.5 243.4375 C-35.07634613 242.20121474 -36.65318114 240.96555262 -38.23046875 239.73046875 C-39.02243652 239.10962402 -39.8144043 238.4887793 -40.63037109 237.84912109 C-44.33755057 234.95625304 -48.07346387 232.10150434 -51.8125 229.25 C-53.22006861 228.1758029 -54.62762105 227.10158462 -56.03515625 226.02734375 C-56.70434082 225.51671387 -57.37352539 225.00608398 -58.06298828 224.47998047 C-63.05284325 220.66746461 -68.02470368 216.8314782 -73 213 C-75.16644651 211.33304708 -77.33322497 209.66652587 -79.5 208 C-80.58333938 207.16667453 -81.66667272 206.3333412 -82.75 205.5 C-83.28625 205.0875 -83.8225 204.675 -84.375 204.25 C-89.25 200.5 -89.25 200.5 -90.87402344 199.25073242 C-91.96058779 198.41492624 -93.04717645 197.57915165 -94.13378906 196.7434082 C-96.79288548 194.69816364 -99.4514994 192.65230009 -102.109375 190.60546875 C-108.95355075 185.33613443 -115.8102909 180.0835214 -122.67358398 174.83911133 C-128.24641099 170.57962169 -133.80785819 166.30559458 -139.36328125 162.0234375 C-141.5648168 160.33396281 -143.77553815 158.65909981 -146 157 C-144.5970017 152.79100511 -141.53390276 151.18579927 -138.0625 148.6875 C-136.59782483 147.61221936 -135.13432754 146.53533286 -133.671875 145.45703125 C-132.90552734 144.89322754 -132.13917969 144.32942383 -131.34960938 143.74853516 C-127.45658522 140.85141971 -123.63540397 137.86367463 -119.8125 134.875 C-119.060896 134.28976563 -118.30929199 133.70453125 -117.53491211 133.1015625 C-114.05130189 130.3884208 -110.57536632 127.66633814 -107.11328125 124.92578125 C-105.95056042 124.01297041 -104.78780253 123.10020677 -103.625 122.1875 C-102.62726563 121.39730469 -101.62953125 120.60710937 -100.6015625 119.79296875 C-96.76117143 117.14621274 -96.76117143 117.14621274 -94 117 C-91.94921875 117.85546875 -91.94921875 117.85546875 -89.6875 119.1875 C-74.2816284 127.1922925 -54.42478988 129.14715511 -37.71484375 123.96875 C-36.81894531 123.6490625 -35.92304688 123.329375 -35 123 C-33.94941406 122.6596875 -32.89882813 122.319375 -31.81640625 121.96875 C-23.67405357 119.12995566 -16.91532476 115.11488518 -10 110 C-9.03320312 109.31164062 -9.03320312 109.31164062 -8.046875 108.609375 C6.78025904 97.10795327 15.61021696 77.18511095 18 59 C19.09020035 38.5377781 14.27799525 21.8270798 2.890625 4.8359375 C1 2 1 2 0 0 Z " fill="#9EAFFD" transform="translate(463,103)"/>
<path d="M0 0 C0.00054477 0.82053297 0.00108953 1.64106594 0.00165081 2.48646355 C0.01663577 22.47684406 0.05915194 42.46700199 0.13209057 62.45725822 C0.16670376 72.1245258 0.19209127 81.79165132 0.19555664 91.45898438 C0.19860164 99.88770967 0.21916411 108.31618174 0.26052457 116.74480927 C0.28180768 121.20536094 0.29447939 125.66555302 0.28615379 130.12615585 C0.27858381 134.33048743 0.29455506 138.53409221 0.32806015 142.73829079 C0.33625811 144.27567339 0.33608524 145.81312874 0.32659721 147.35050392 C0.27808099 156.08079888 0.62716166 163.72661339 6 171 C12.03449136 176.76880863 18.04353972 179.23649021 26.45407104 179.2784729 C27.73285629 179.28963638 29.01164154 179.30079987 30.32917786 179.31230164 C31.73361177 179.31466621 33.138046 179.31684193 34.54248047 179.31884766 C36.03103679 179.32815232 37.51958793 179.33832179 39.00813293 179.34928894 C43.03862984 179.37654242 47.06909187 179.39172452 51.09965658 179.40471697 C55.31575605 179.42036789 59.53178454 179.44715186 63.74783325 179.4727478 C71.72682413 179.51950087 79.70582841 179.55626177 87.6848861 179.58942068 C96.77074875 179.6276666 105.85654005 179.67707029 114.94234252 179.72740483 C133.6281761 179.83067304 152.31405325 179.91995005 171 180 C167.87819717 182.51713522 164.76284986 184.90035255 161.41015625 187.1015625 C160.54994873 187.6694751 159.68974121 188.2373877 158.8034668 188.82250977 C157.89894775 189.41733154 156.99442871 190.01215332 156.0625 190.625 C149.69444643 194.83647791 143.37214844 199.08536551 137.1875 203.5625 C124.12964493 213 124.12964493 213 121 213 C122.14540225 214.31287621 123.29133433 215.62529021 124.4375 216.9375 C125.39462891 218.03384766 125.39462891 218.03384766 126.37109375 219.15234375 C127.22541459 220.12139353 128.08651175 221.08651175 129 222 C129.3125 224.875 129.3125 224.875 129 228 C127.375 230 127.375 230 125 231 C120.4753465 230.15162747 117.98721813 228.44679015 115 225 C112.38065691 226.16415249 110.73740184 227.24877721 108.625 229.25 C106 231 106 231 102.75 230.375 C100 229 100 229 99 227 C97.2984375 227.5878125 97.2984375 227.5878125 95.5625 228.1875 C66.06667058 237.95741195 35.27469189 241.98177358 6.15136719 228.12011719 C-1.91196424 224.01383048 -9.252738 219.04102685 -16 213 C-16.89332031 212.20078125 -17.78664062 211.4015625 -18.70703125 210.578125 C-33.76885841 196.33785205 -43.32466003 177.60110489 -49.375 157.9375 C-49.60155273 157.20829346 -49.82810547 156.47908691 -50.06152344 155.7277832 C-54.25420451 141.11802346 -55.55681583 126.38488747 -55.4375 111.25 C-55.43445862 110.42505035 -55.43141724 109.60010071 -55.42828369 108.75015259 C-55.35644221 95.52413538 -54.57196799 82.80506425 -51 70 C-50.79632813 69.26168945 -50.59265625 68.52337891 -50.3828125 67.76269531 C-45.40567716 50.51937921 -22.51142311 0 0 0 Z " fill="#F5D7EE" transform="translate(55,215)"/>
<path d="M0 0 C1.45792969 0.51046875 1.45792969 0.51046875 2.9453125 1.03125 C20.83858799 7.80415223 33.79446625 21.33287266 41.62109375 38.5703125 C47.33828719 52.79041404 48.53606105 69.5124854 43 84 C42.6596875 84.97066406 42.319375 85.94132812 41.96875 86.94140625 C35.47906777 104.10836972 22.59761273 117.41141306 6 125 C-9.24049152 131.73945376 -27.21675833 132.60244838 -43 127 C-60.71007003 119.95211499 -73.8344187 107.72398109 -81.97265625 90.40625 C-88.4111971 75.32586536 -89.64483356 56.72509119 -83.96484375 41.1640625 C-75.8995258 22.64754475 -63.64546503 8.83872575 -44.78515625 0.99609375 C-30.49091107 -4.11615383 -14.39855951 -5.4268127 0 0 Z " fill="#FD5BA8" transform="translate(426,90)"/>
<path d="M0 0 C6.05074895 4.03383263 11.81959907 8.0712874 17.5 12.5625 C19.07634613 13.79878526 20.65318114 15.03444738 22.23046875 16.26953125 C23.41842041 17.20079834 23.41842041 17.20079834 24.63037109 18.15087891 C28.33755057 21.04374696 32.07346387 23.89849566 35.8125 26.75 C37.22006861 27.8241971 38.62762105 28.89841538 40.03515625 29.97265625 C40.70434082 30.48328613 41.37352539 30.99391602 42.06298828 31.52001953 C47.05284325 35.33253539 52.02470368 39.1685218 57 43 C59.16644651 44.66695292 61.33322497 46.33347413 63.5 48 C64.58333938 48.83332547 65.66667272 49.6666588 66.75 50.5 C67.28625 50.9125 67.8225 51.325 68.375 51.75 C73.25 55.5 73.25 55.5 74.87402344 56.74926758 C75.96058779 57.58507376 77.04717645 58.42084835 78.13378906 59.2565918 C80.79288548 61.30183636 83.4514994 63.34769991 86.109375 65.39453125 C92.95355075 70.66386557 99.8102909 75.9164786 106.67358398 81.16088867 C112.24641099 85.42037831 117.80785819 89.69440542 123.36328125 93.9765625 C125.5648168 95.66603719 127.77553815 97.34090019 130 99 C128.68100539 102.0320323 127.43372714 103.72804079 124.76171875 105.6640625 C124.11307861 106.14117676 123.46443848 106.61829102 122.79614258 107.10986328 C122.10029053 107.6098584 121.40443848 108.10985352 120.6875 108.625 C119.22604111 109.69720635 117.76511045 110.77013304 116.3046875 111.84375 C115.21172363 112.64232422 115.21172363 112.64232422 114.09667969 113.45703125 C111.13491918 115.63662212 108.22012585 117.87396386 105.3125 120.125 C104.78873779 120.52928223 104.26497559 120.93356445 103.7253418 121.35009766 C102.14983287 122.56622022 100.57491537 123.78310887 99 125 C96.83421096 126.66780847 94.6671012 128.33389705 92.5 130 C91.41664248 130.83330188 90.33330912 131.66663519 89.25 132.5 C82.75 137.5 76.25 142.5 69.75 147.5 C69.21407227 147.9122583 68.67814453 148.3245166 68.12597656 148.74926758 C67.03941221 149.58507376 65.95282355 150.42084835 64.86621094 151.2565918 C62.20711452 153.30183636 59.5485006 155.34769991 56.890625 157.39453125 C50.03983176 162.66896038 43.17616091 167.92625547 36.30664062 173.17626953 C31.94950795 176.50698118 27.59659147 179.8430449 23.25 183.1875 C22.22519531 183.97511719 21.20039062 184.76273438 20.14453125 185.57421875 C17.90764186 187.29981913 15.67613123 189.03117302 13.44921875 190.76953125 C12.86172852 191.22626221 12.27423828 191.68299316 11.66894531 192.15356445 C10.54759507 193.02556764 9.42831286 193.90023944 8.31152344 194.77807617 C5.58720035 196.89241794 3.11566956 198.44216522 0 200 C0 134 0 68 0 0 Z " fill="#9EAFFD" transform="translate(65,159)"/>
<path d="M0 0 C19.04829036 8.39342475 33.27783646 33.28336061 40.55859375 51.90625 C58.17598047 99.32087772 50.81510418 157.93209589 30.12890625 203.17578125 C23.98205998 216.12119892 16.64829619 228.29371966 7.3125 239.1875 C6.79018799 239.79924072 6.26787598 240.41098145 5.72973633 241.04125977 C3.1360833 243.96497705 0.58134401 246.34569302 -2.61433411 248.60566711 C-3.24751462 249.05447392 -3.88069513 249.50328074 -4.53306293 249.96568775 C-5.01715217 250.30701079 -5.5012414 250.64833384 -6 251 C-6.00146656 250.38947124 -6.00293312 249.77894247 -6.00444412 249.14991283 C-6.04147644 234.30261262 -6.10044339 219.45552171 -6.18390274 204.60841656 C-6.22373261 197.428475 -6.25610491 190.24864367 -6.27099609 183.06860352 C-6.28399231 176.81133856 -6.31090447 170.55431575 -6.35461307 164.29718715 C-6.37727435 160.98320039 -6.39083265 157.66957943 -6.39188385 154.35550499 C-6.39423692 150.65809793 -6.42118409 146.9616475 -6.45410156 143.2644043 C-6.4490712 142.16245224 -6.44404083 141.06050018 -6.43885803 139.92515564 C-6.45277084 138.91974731 -6.46668365 137.91433899 -6.48101807 136.87846375 C-6.48470524 136.0036822 -6.48839241 135.12890066 -6.49219131 134.22761059 C-7.16781343 131.26385077 -8.51999724 130.62461178 -11 129 C-12.66281987 123.61469936 -12.09800887 116.47796358 -11 111 C-9.388369 108.45188072 -7.92436841 107.38442497 -5.421875 105.73828125 C7.81904188 96.23471994 14.47062959 77.34533768 17.58984375 62.12109375 C20.37827282 40.90247637 14.64747341 22.37837969 2.890625 4.8359375 C1 2 1 2 0 0 Z " fill="#DED3F6" transform="translate(463,103)"/>
<path d="M0 0 C0.58007812 0.40992188 1.16015625 0.81984375 1.7578125 1.2421875 C2.92957031 2.05042969 2.92957031 2.05042969 4.125 2.875 C5.27355469 3.67550781 5.27355469 3.67550781 6.4453125 4.4921875 C11.34536254 7.38426597 15.80791624 8.2502891 21.45407104 8.2784729 C22.73285629 8.28963638 24.01164154 8.30079987 25.32917786 8.31230164 C26.73361177 8.31466621 28.138046 8.31684193 29.54248047 8.31884766 C31.03103679 8.32815232 32.51958793 8.33832179 34.00813293 8.34928894 C38.03862984 8.37654242 42.06909187 8.39172452 46.09965658 8.40471697 C50.31575605 8.42036789 54.53178454 8.44715186 58.74783325 8.4727478 C66.72682413 8.51950087 74.70582841 8.55626177 82.6848861 8.58942068 C91.77074875 8.6276666 100.85654005 8.67707029 109.94234252 8.72740483 C128.6281761 8.83067304 147.31405325 8.91995005 166 9 C162.75468224 11.61791864 159.50003525 14.07962523 156.0234375 16.3828125 C155.105625 16.99253906 154.1878125 17.60226562 153.2421875 18.23046875 C151.82292969 19.16826172 151.82292969 19.16826172 150.375 20.125 C149.42109375 20.75792969 148.4671875 21.39085937 147.484375 22.04296875 C145.71993968 23.21346035 143.95487281 24.38300089 142.18896484 25.55126953 C140.45708227 26.6974876 138.72802907 27.84798062 137 29 C134.77911854 29.25447559 134.77911854 29.25447559 132.1374054 29.26069641 C130.6340136 29.27132362 130.6340136 29.27132362 129.10025024 29.28216553 C127.45214859 29.2784494 127.45214859 29.2784494 125.77075195 29.2746582 C124.61273575 29.27976913 123.45471954 29.28488007 122.26161194 29.29014587 C118.4204496 29.3040836 114.57946593 29.30308143 110.73828125 29.30078125 C108.74523467 29.30368501 106.75218803 29.30659323 104.75914258 29.310188 C98.48727796 29.32128892 92.21547321 29.32171858 85.94360352 29.31567383 C79.48559956 29.30964492 73.02781408 29.32191593 66.5698474 29.3432439 C61.01810139 29.36090108 55.46642462 29.36685443 49.91465157 29.36360615 C46.60225013 29.36179826 43.29003827 29.36570296 39.97765541 29.37832069 C36.27700736 29.39068286 32.57686097 29.38389318 28.8762207 29.37231445 C27.78760742 29.37995819 26.69899414 29.38760193 25.57739258 29.39547729 C17.17833786 29.33751203 10.26888553 28.08977451 4 22 C0.3047888 16.72112686 -0.12622761 12.62276068 -0.0625 6.25 C-0.05347656 5.07953125 -0.04445312 3.9090625 -0.03515625 2.703125 C-0.02355469 1.81109375 -0.01195312 0.9190625 0 0 Z " fill="#D7C4EC" transform="translate(60,386)"/>
<path d="M0 0 C0.33 5.94 0.66 11.88 1 18 C-0.98 18.495 -0.98 18.495 -3 19 C-3.92039062 20.15822266 -3.92039062 20.15822266 -4.859375 21.33984375 C-11.74382646 29.8951566 -26.52500954 33.63542494 -37 35 C-53.10740761 36.48357702 -68.54230868 35.09397624 -82.203125 25.72265625 C-83.98022314 24.78998762 -83.98022314 24.78998762 -85.7890625 25.54296875 C-88.99735127 27.65726506 -92.06538459 29.9268617 -95.125 32.25 C-95.8149707 32.76780029 -96.50494141 33.28560059 -97.21582031 33.8190918 C-101.16684347 36.79826932 -105.06096462 39.83654923 -108.9140625 42.94140625 C-109.72085449 43.58625977 -110.52764648 44.23111328 -111.35888672 44.89550781 C-112.93444889 46.15866017 -114.50146883 47.43255316 -116.05908203 48.71777344 C-116.77692871 49.29172852 -117.49477539 49.86568359 -118.234375 50.45703125 C-118.86569336 50.97241455 -119.49701172 51.48779785 -120.14746094 52.01879883 C-122 53 -122 53 -124.08789062 52.76074219 C-126.68749725 51.72647581 -128.57909626 50.19337803 -130.75 48.4375 C-131.94882812 47.47650391 -131.94882812 47.47650391 -133.171875 46.49609375 C-133.77515625 46.00238281 -134.3784375 45.50867188 -135 45 C-133.5970017 40.79100511 -130.53390276 39.18579927 -127.0625 36.6875 C-125.59782483 35.61221936 -124.13432754 34.53533286 -122.671875 33.45703125 C-121.52235352 32.61132568 -121.52235352 32.61132568 -120.34960938 31.74853516 C-116.45658522 28.85141971 -112.63540397 25.86367463 -108.8125 22.875 C-108.060896 22.28976563 -107.30929199 21.70453125 -106.53491211 21.1015625 C-103.05130189 18.3884208 -99.57536632 15.66633814 -96.11328125 12.92578125 C-94.95056042 12.01297041 -93.78780253 11.10020677 -92.625 10.1875 C-91.62726563 9.39730469 -90.62953125 8.60710937 -89.6015625 7.79296875 C-85.76117143 5.14621274 -85.76117143 5.14621274 -83 5 C-80.94921875 5.85546875 -80.94921875 5.85546875 -78.6875 7.1875 C-63.27461662 15.19593578 -43.44632052 17.13222275 -26.7265625 11.9765625 C-25.82679688 11.65429688 -24.92703125 11.33203125 -24 11 C-22.37191406 10.45472656 -22.37191406 10.45472656 -20.7109375 9.8984375 C-14.44888553 7.66713163 -9.06502686 5.08314594 -3.70703125 1.13671875 C-2 0 -2 0 0 0 Z " fill="#8298FD" transform="translate(452,215)"/>
<path d="M0 0 C3.14167072 0.82141685 5.99760479 1.94658361 8.98999023 3.20996094 C9.89042557 3.58809181 9.89042557 3.58809181 10.80905151 3.97386169 C12.77902322 4.80287505 14.74592064 5.63890431 16.71264648 6.47558594 C18.08390244 7.05561366 19.45524155 7.63544484 20.82666016 8.21508789 C24.4159895 9.73454801 28.00199568 11.26168868 31.58679199 12.79180908 C33.76847313 13.7227384 35.95095143 14.65177845 38.13354492 15.58056641 C41.62387668 17.06699129 45.11140129 18.55982013 48.59671021 20.0579834 C49.92086862 20.62670638 51.24563533 21.19401521 52.5710144 21.7598877 C54.4184696 22.54962439 56.2629018 23.34642167 58.10717773 24.14355469 C59.15623291 24.59496826 60.20528809 25.04638184 61.28613281 25.51147461 C63.77514648 26.72558594 63.77514648 26.72558594 65.77514648 28.72558594 C66.40014648 31.03808594 66.40014648 31.03808594 65.77514648 33.72558594 C59.9846966 38.62240109 52.28685214 41.29394746 45.39233398 44.20996094 C44.21929718 44.71102356 43.04626038 45.21208618 41.837677 45.72833252 C39.36976784 46.78039653 36.90090022 47.8297047 34.42993164 48.87451172 C31.27452159 50.20917096 28.12438456 51.55579509 24.97561455 52.90603256 C21.95058954 54.20127943 18.92128525 55.48642838 15.89233398 56.77246094 C14.76721405 57.2547113 13.64209412 57.73696167 12.48287964 58.23382568 C11.42803375 58.67808899 10.37318787 59.12235229 9.28637695 59.58007812 C8.36452606 59.97136902 7.44267517 60.36265991 6.4928894 60.76580811 C3.54519314 61.80679455 0.89269246 62.46142059 -2.22485352 62.72558594 C-3.21485352 62.06558594 -4.20485352 61.40558594 -5.22485352 60.72558594 C-4.72424818 52.68360345 -2.31586571 46.71147822 1.06811523 39.47949219 C1.42776367 38.67898437 1.78741211 37.87847656 2.15795898 37.05371094 C2.4919873 36.34118164 2.82601563 35.62865234 3.17016602 34.89453125 C4.35231605 30.65634687 2.5798784 26.94409753 0.92749023 23.03808594 C0.39091797 21.74257812 0.39091797 21.74257812 -0.15649414 20.42089844 C-0.91098639 18.62262677 -1.66880663 16.82574782 -2.42993164 15.03027344 C-2.78635742 14.16660156 -3.1427832 13.30292969 -3.51000977 12.41308594 C-4.00319702 11.24326172 -4.00319702 11.24326172 -4.50634766 10.04980469 C-5.30594459 7.46327299 -5.43501123 5.41832005 -5.22485352 2.72558594 C-3.63368605 0.21321626 -2.99484959 -0.3693856 0 0 Z " fill="#FFFDFD" transform="translate(379.224853515625,122.2744140625)"/>
<path d="M0 0 C6.0605108 3.92604143 11.83700201 8.08504704 17.5 12.5625 C19.07634613 13.79878526 20.65318114 15.03444738 22.23046875 16.26953125 C23.41842041 17.20079834 23.41842041 17.20079834 24.63037109 18.15087891 C28.33755057 21.04374696 32.07346387 23.89849566 35.8125 26.75 C37.22006861 27.8241971 38.62762105 28.89841538 40.03515625 29.97265625 C40.70434082 30.48328613 41.37352539 30.99391602 42.06298828 31.52001953 C47.05284325 35.33253539 52.02470368 39.1685218 57 43 C59.16644651 44.66695292 61.33322497 46.33347413 63.5 48 C64.58333938 48.83332547 65.66667272 49.6666588 66.75 50.5 C67.28625 50.9125 67.8225 51.325 68.375 51.75 C73.25 55.5 73.25 55.5 74.87402344 56.74926758 C75.96058779 57.58507376 77.04717645 58.42084835 78.13378906 59.2565918 C80.79288548 61.30183636 83.4514994 63.34769991 86.109375 65.39453125 C92.95355075 70.66386557 99.8102909 75.9164786 106.67358398 81.16088867 C112.24641099 85.42037831 117.80785819 89.69440542 123.36328125 93.9765625 C125.5648168 95.66603719 127.77553815 97.34090019 130 99 C128.52202738 102.67056937 126.52384523 104.41085783 123.375 106.75 C122.55773437 107.36359375 121.74046875 107.9771875 120.8984375 108.609375 C120.27195312 109.06828125 119.64546875 109.5271875 119 110 C118.53416504 109.65026123 118.06833008 109.30052246 117.58837891 108.94018555 C113.84130165 106.12826606 110.09106571 103.3206918 106.3359375 100.51953125 C97.55237399 93.96021112 88.8211687 87.35194372 80.2265625 80.546875 C75.39516577 76.72262743 70.4991872 72.98227453 65.60888672 69.23388672 C62.90350188 67.15907413 60.20195834 65.07927147 57.5 63 C56.41668482 62.16664307 55.33335149 61.33330973 54.25 60.5 C47.75 55.5 47.75 55.5 46.12597656 54.25073242 C45.03941221 53.41492624 43.95282355 52.57915165 42.86621094 51.7434082 C40.20711452 49.69816364 37.5485006 47.65230009 34.890625 45.60546875 C28.66331861 40.81106246 22.42872943 36.02627041 16.1875 31.25 C15.49430664 30.71914795 14.80111328 30.1882959 14.08691406 29.64135742 C13.41241211 29.12549072 12.73791016 28.60962402 12.04296875 28.078125 C11.38280762 27.5620166 10.72264648 27.0459082 10.04248047 26.51416016 C8.00655868 24.95582256 8.00655868 24.95582256 5.72705078 23.62255859 C0.33898751 20.2152432 0.33898751 20.2152432 -0.62817383 16.74804688 C-0.78726441 14.15997049 -0.70239191 11.70938901 -0.5 9.125 C-0.46390625 8.24585938 -0.4278125 7.36671875 -0.390625 6.4609375 C-0.29690578 4.3053955 -0.15341824 2.15211696 0 0 Z " fill="#8298FD" transform="translate(65,159)"/>
<path d="M0 0 C3.97148101 1.3479641 6.66935208 3.76392459 9.84765625 6.4453125 C11.19155615 7.54958079 12.53662105 8.65243271 13.8828125 9.75390625 C14.54555176 10.29901855 15.20829102 10.84413086 15.89111328 11.40576172 C20.40370562 15.07376988 25.10474977 18.49628478 29.78515625 21.9453125 C30.42614258 22.41952637 31.06712891 22.89374023 31.72753906 23.38232422 C33.7867644 24.90556679 35.84802071 26.42601249 37.91015625 27.9453125 C38.88855469 28.66763062 38.88855469 28.66763062 39.88671875 29.40454102 C45.7695609 33.72241628 49.47072659 35.01288099 56.78515625 33.9453125 C60.16973782 32.42705162 62.89242468 30.24750237 65.78515625 27.9453125 C66.72746094 27.22988281 67.66976562 26.51445312 68.640625 25.77734375 C70.80432232 24.1297084 72.95944903 22.47491389 75.10546875 20.8046875 C79.27466409 17.56019536 83.46585871 14.3447566 87.66015625 11.1328125 C88.36140625 10.59390381 89.06265625 10.05499512 89.78515625 9.49975586 C91.13238277 8.46772528 92.48350475 7.4407558 93.83886719 6.41943359 C95.1409295 5.43325042 96.43075226 4.43070461 97.70800781 3.41259766 C99.54296875 1.99609375 99.54296875 1.99609375 102.78515625 -0.0546875 C106.50173495 0.43361566 108.65125116 2.17524221 111.53515625 4.5078125 C112.334375 5.14847656 113.13359375 5.78914063 113.95703125 6.44921875 C114.5603125 6.94292969 115.16359375 7.43664062 115.78515625 7.9453125 C112.99143048 11.71191219 110.14154892 14.38906109 106.34765625 17.1328125 C105.28546875 17.91140625 104.22328125 18.69 103.12890625 19.4921875 C102.5771875 19.89501953 102.02546875 20.29785156 101.45703125 20.71289062 C98.72242538 22.72870406 96.03563402 24.80546121 93.34765625 26.8828125 C92.81116455 27.29587646 92.27467285 27.70894043 91.72192383 28.13452148 C88.93850787 30.27826268 86.16151323 32.42993518 83.390625 34.58984375 C70.42261986 44.67648683 60.82539003 51.9227671 43.78515625 49.9453125 C35.25856648 47.69074305 28.2740492 40.83872609 21.55664062 35.37402344 C18.81488881 33.162787 16.02078077 31.02195534 13.22265625 28.8828125 C12.15751555 28.06515175 11.09241141 27.24744339 10.02734375 26.4296875 C8.36941931 25.15871313 6.71091147 23.88851001 5.05175781 22.61914062 C3.88252339 21.72452373 2.71365716 20.82942539 1.54516602 19.93383789 C-0.04983454 18.71137881 -1.64597226 17.49040384 -3.2421875 16.26953125 C-6.28908038 13.8872694 -9.25661219 11.43622283 -12.21484375 8.9453125 C-3.43554033 -0.08482816 -3.43554033 -0.08482816 0 0 Z " fill="#6482FD" transform="translate(204.21484375,266.0546875)"/>
<path d="M0 0 C1.18439415 0.00136711 1.18439415 0.00136711 2.39271545 0.00276184 C3.2040242 -0.00152328 4.01533295 -0.00580841 4.85122681 -0.01022339 C6.56857876 -0.01597091 8.28595506 -0.01646385 10.00331116 -0.01213074 C12.63288391 -0.0089734 15.26132901 -0.03241439 17.89076233 -0.05778503 C19.55807861 -0.06005823 21.22539793 -0.06076143 22.89271545 -0.05973816 C23.68028732 -0.06894791 24.46785919 -0.07815765 25.27929688 -0.08764648 C30.61189119 -0.0423989 30.61189119 -0.0423989 33.20399475 1.45906067 C34.63960161 4.0935056 34.59795581 6.18594355 34.6075592 9.17854309 C34.61335999 10.90330872 34.61335999 10.90330872 34.61927795 12.66291809 C34.60767639 13.86432434 34.59607483 15.06573059 34.5841217 16.30354309 C34.59572327 17.50494934 34.60732483 18.70635559 34.61927795 19.94416809 C34.61541077 21.09401184 34.61154358 22.24385559 34.6075592 23.42854309 C34.60417542 24.48299622 34.60079163 25.53744934 34.5973053 26.62385559 C34.2091217 29.30354309 34.2091217 29.30354309 33.20399475 31.14802551 C29.96217694 33.02582795 26.53548635 32.70942236 22.89271545 32.66682434 C21.67431725 32.6675721 21.67431725 32.6675721 20.43130493 32.66833496 C18.71569876 32.66599592 17.00008907 32.65627737 15.28456116 32.63972473 C12.65298435 32.61610021 10.02241844 32.61916871 7.39076233 32.62580872 C5.72474064 32.62023299 4.05872323 32.61312377 2.39271545 32.60432434 C1.60311935 32.60523575 0.81352325 32.60614716 0 32.60708618 C-5.55984037 32.53458101 -5.55984037 32.53458101 -7.7908783 30.30354309 C-8.04966736 27.53791809 -8.04966736 27.53791809 -8.0565033 24.05354309 C-8.05908142 22.80573059 -8.06165955 21.55791809 -8.0643158 20.27229309 C-8.05658142 18.96260559 -8.04884705 17.65291809 -8.0408783 16.30354309 C-8.04861267 14.99385559 -8.05634705 13.68416809 -8.0643158 12.33479309 C-8.06173767 11.08698059 -8.05915955 9.83916809 -8.0565033 8.55354309 C-8.05424744 7.40369934 -8.05199158 6.25385559 -8.04966736 5.06916809 C-7.55091713 -0.26087205 -4.6856784 0.06110533 0 0 Z " fill="#02FEB3" transform="translate(341.79087829589844,330.6964569091797)"/>
<path d="M0 0 C0.73154297 0.00451172 1.46308594 0.00902344 2.21679688 0.01367188 C3.99873419 0.02531852 5.78062863 0.04324809 7.5625 0.0625 C7.5625 0.3925 7.5625 0.7225 7.5625 1.0625 C6.71429688 1.19785156 5.86609375 1.33320312 4.9921875 1.47265625 C-12.57584333 4.69667949 -29.87134836 14.28520096 -40.4375 29.0625 C-44.93317222 35.85728976 -48.78399519 42.75549038 -52.4375 50.0625 C-58.7075 50.0625 -64.9775 50.0625 -71.4375 50.0625 C-73.4375 45.0625 -73.4375 45.0625 -72.6015625 42.51953125 C-68.73455315 35.8749492 -64.50184008 29.85173582 -59.4375 24.0625 C-58.88320313 23.42441406 -58.32890625 22.78632812 -57.7578125 22.12890625 C-43.46752816 6.77881613 -20.48216637 -0.24361223 0 0 Z " fill="#FAD7EC" transform="translate(385.4375,77.9375)"/>
<path d="M0 0 C0.85665756 -0.00708481 1.71331512 -0.01416962 2.59593201 -0.02146912 C3.53780365 -0.0189917 4.47967529 -0.01651428 5.4500885 -0.01396179 C6.44042587 -0.01907272 7.43076324 -0.02418365 8.45111084 -0.02944946 C11.73737059 -0.0433934 15.02342175 -0.04238508 18.30970764 -0.04008484 C20.58652831 -0.04396914 22.86334825 -0.04830326 25.14016724 -0.05307007 C29.91765184 -0.06054263 34.69506256 -0.06023351 39.47254944 -0.05497742 C45.60419972 -0.04918162 51.73554806 -0.06611164 57.8671484 -0.08932209 C62.57079852 -0.10403194 67.27437547 -0.10493487 71.97804451 -0.10181236 C74.23914246 -0.10232697 76.50024437 -0.10759059 78.76132011 -0.11762428 C81.91949633 -0.12991797 85.07707852 -0.12323938 88.23524475 -0.11161804 C89.17509216 -0.11926178 90.11493958 -0.12690552 91.08326721 -0.13478088 C91.9427446 -0.12776657 92.80222198 -0.12075226 93.68774414 -0.11352539 C94.4345642 -0.11369313 95.18138426 -0.11386087 95.95083523 -0.1140337 C98.48369799 0.37108055 99.39535981 1.19630949 100.90736389 3.26069641 C100.71986389 6.38569641 100.71986389 6.38569641 99.90736389 9.26069641 C97.62392712 10.4024148 96.35216648 10.39102632 93.81472778 10.40113831 C92.52974144 10.40970352 92.52974144 10.40970352 91.21879578 10.41844177 C90.27692413 10.41955963 89.33505249 10.42067749 88.36463928 10.42182922 C87.37430191 10.42679413 86.38396454 10.43175903 85.36361694 10.43687439 C82.07741103 10.45151688 78.79125336 10.45830093 75.50502014 10.46382141 C73.22820025 10.46957044 70.95138039 10.4753282 68.67456055 10.48109436 C63.89709751 10.49160981 59.11965133 10.49744915 54.34217834 10.50093079 C48.21054838 10.50642152 42.07913981 10.53045977 35.94757938 10.55890274 C31.24394065 10.57749374 26.54035566 10.5827328 21.83668327 10.58426666 C19.57557907 10.58730092 17.31447598 10.59535527 15.05340767 10.60845184 C11.89525952 10.62544092 8.7376579 10.62364969 5.57948303 10.61714172 C4.63963562 10.62635651 3.69978821 10.63557129 2.73146057 10.64506531 C1.87198318 10.63949615 1.0125058 10.633927 0.12698364 10.62818909 C-0.61983642 10.62965565 -1.36665648 10.63112221 -2.13610744 10.63263321 C-4.6559252 10.15361495 -5.57078079 9.29536466 -7.09263611 7.26069641 C-6.71547343 2.10613977 -5.18408615 0.01425729 0 0 Z " fill="#FCFDFF" transform="translate(216.09263610839844,352.7393035888672)"/>
<path d="M0 0 C3.93525174 2.0466637 6.23534462 4.21971035 7.97265625 8.2734375 C9.39526505 13.19785257 9.17234485 17.64396736 6.97265625 22.2734375 C3.13063954 26.64408551 -0.43503804 29.07779179 -6.33984375 29.5234375 C-11.69164612 29.16060344 -14.74683738 27.69237699 -18.33984375 23.7109375 C-21.77464773 18.74955397 -21.62101193 14.19339625 -21.02734375 8.2734375 C-19.25387353 4.45365548 -17.76784852 2.79006873 -14.33984375 0.3984375 C-9.46666879 -1.25660305 -4.92691868 -1.76571652 0 0 Z M-8.02734375 10.2734375 C-8.68734375 10.9334375 -9.34734375 11.5934375 -10.02734375 12.2734375 C-9.70692978 14.87624318 -9.70692978 14.87624318 -9.02734375 17.2734375 C-7.13555172 17.9549198 -7.13555172 17.9549198 -5.02734375 18.2734375 C-2.74005641 16.43459869 -2.74005641 16.43459869 -2.90234375 13.6484375 C-2.94359375 12.8646875 -2.98484375 12.0809375 -3.02734375 11.2734375 C-5.42453807 10.59385147 -5.42453807 10.59385147 -8.02734375 10.2734375 Z " fill="#00ECA2" transform="translate(225.02734375,430.7265625)"/>
<path d="M0 0 C3.88577008 3.44168207 5.97665443 7.25438679 6.38671875 12.47265625 C6.0666549 18.53558004 4.6775632 21.85562436 0.1875 25.9375 C-4.06802508 28.53809866 -8.96073937 28.62326122 -13.8125 27.9375 C-18.62956073 25.5744136 -21.4494136 22.75456073 -23.8125 17.9375 C-24.7146605 12.29139441 -24.05429585 7.74430074 -20.8125 2.9375 C-14.55008954 -3.0037612 -7.85972146 -2.96922811 0 0 Z M-12.8125 10.9375 C-12.4825 12.5875 -12.1525 14.2375 -11.8125 15.9375 C-10.1625 16.2675 -8.5125 16.5975 -6.8125 16.9375 C-6.1525 15.2875 -5.4925 13.6375 -4.8125 11.9375 C-6.18735532 10.39583358 -6.18735532 10.39583358 -7.8125 8.9375 C-10.13607511 8.75259993 -10.13607511 8.75259993 -12.8125 10.9375 Z " fill="#00ECA2" transform="translate(339.8125,54.0625)"/>
<path d="M0 0 C6.55296328 0.90231174 12.12647247 3.32336885 18.1875 5.875 C19.27998047 6.32230469 20.37246094 6.76960937 21.49804688 7.23046875 C22.54412109 7.66746094 23.59019531 8.10445312 24.66796875 8.5546875 C25.61953857 8.95155762 26.5711084 9.34842773 27.55151367 9.75732422 C29.92147941 10.96014859 31.39506159 11.8939963 33 14 C33.1875 17.1875 33.1875 17.1875 33 20 C25.7644314 23.81275471 18.40536976 27.19233167 10.875 30.375 C9.61272583 30.91157227 9.61272583 30.91157227 8.32495117 31.45898438 C7.53451416 31.78962891 6.74407715 32.12027344 5.9296875 32.4609375 C5.22054199 32.75790527 4.51139648 33.05487305 3.78076172 33.36083984 C2 34 2 34 0 34 C1.39252745 29.6446482 2.77213594 25.37890516 4.75 21.25 C6.87333845 15.72932003 4.53470561 11.51117578 2.4375 6.1875 C1.98246094 5.02605469 1.52742188 3.86460937 1.05859375 2.66796875 C0.70925781 1.78753906 0.35992187 0.90710938 0 0 Z " fill="#FFDAEC" transform="translate(377,137)"/>
<path d="M0 0 C2.11993571 1.67935528 3.93003293 3.27989986 5.8125 5.1875 C6.31458984 5.65736328 6.81667969 6.12722656 7.33398438 6.61132812 C9.88201182 9.15242217 10.95523336 10.63211573 11.39453125 14.2421875 C11 17 11 17 9.875 18.9375 C8 20 8 20 5.1875 20 C1.12428032 18.72526442 -0.89486899 16.88333594 -4 14 C-4.43570312 14.44472656 -4.87140625 14.88945312 -5.3203125 15.34765625 C-10.2005262 19.98491559 -10.2005262 19.98491559 -14.3125 20.0625 C-17 19 -17 19 -19 16 C-18.93564179 11.73805629 -17.07271183 9.62085605 -14.09960938 6.69921875 C-13.59236328 6.22097656 -13.08511719 5.74273437 -12.5625 5.25 C-12.05912109 4.75628906 -11.55574219 4.26257813 -11.03710938 3.75390625 C-5.37090782 -1.73922407 -5.37090782 -1.73922407 0 0 Z " fill="#FF7CB7" transform="translate(434,421)"/>
<path d="M0 0 C4.32566146 0.79086787 6.51896099 2.61091114 9.44140625 5.703125 C9.93447266 6.16912109 10.42753906 6.63511719 10.93554688 7.11523438 C13.64002184 9.87222342 14.48946577 11.53327289 15.0078125 15.38671875 C14.84152344 16.46050781 14.67523438 17.53429687 14.50390625 18.640625 C11.17332508 20.86101244 10.36618874 21.34285818 6.50390625 20.640625 C3.97890517 18.83480302 1.73197793 16.79806616 -0.49609375 14.640625 C-0.94339844 15.07375 -1.39070313 15.506875 -1.8515625 15.953125 C-6.75856057 20.47300382 -6.75856057 20.47300382 -10.24609375 21.265625 C-12.49609375 20.640625 -12.49609375 20.640625 -14.37109375 18.953125 C-15.85083918 15.91142606 -15.54556431 14.84427196 -14.49609375 11.640625 C-12.83855286 9.51564611 -11.26254823 7.71203379 -9.37109375 5.828125 C-8.90960938 5.32603516 -8.448125 4.82394531 -7.97265625 4.30664062 C-5.37469902 1.68370303 -3.64695871 0.66826953 0 0 Z " fill="#FF7DB7" transform="translate(285.49609375,74.359375)"/>
<path d="M0 0 C3.90667314 0.68882139 5.4600905 2.16308311 8.28515625 4.91015625 C9.56132812 6.12832031 9.56132812 6.12832031 10.86328125 7.37109375 C15.03410399 11.52691353 15.03410399 11.52691353 15.41015625 14.47265625 C15.03515625 17.53515625 15.03515625 17.53515625 13.41015625 19.53515625 C11.03515625 20.53515625 11.03515625 20.53515625 8.03515625 19.97265625 C4.99791729 18.51731258 3.22557233 17.06255942 1.03515625 14.53515625 C-1.58418684 15.69930874 -3.22744191 16.78393346 -5.33984375 18.78515625 C-7.96484375 20.53515625 -7.96484375 20.53515625 -11.21484375 20.03515625 C-13.96484375 18.53515625 -13.96484375 18.53515625 -15.02734375 16.72265625 C-14.88750534 11.82831194 -10.88145097 8.08561247 -7.65234375 4.72265625 C-6.91371094 3.93246094 -6.17507812 3.14226562 -5.4140625 2.328125 C-2.96484375 0.53515625 -2.96484375 0.53515625 0 0 Z " fill="#6785FD" transform="translate(168.96484375,425.46484375)"/>
<path d="M0 0 C2.98857905 9.93170087 -3.04598805 23.4961269 -7.57055664 32.34692383 C-11.24422925 38.99856783 -17.0461003 47.52305015 -24 51 C-25.22186674 34.96299903 -25.22186674 34.96299903 -22.5703125 30.703125 C-20.625 29.1875 -20.625 29.1875 -18.421875 27.73828125 C-15.34863434 25.53248755 -13.15685854 22.85058506 -10.875 19.875 C-10.45250977 19.32457031 -10.03001953 18.77414063 -9.59472656 18.20703125 C-5.43194551 12.56566676 -2.61752675 6.50125546 0 0 Z " fill="#CEC1EE" transform="translate(476,181)"/>
<path d="M0 0 C0.70210098 0.00091141 1.40420197 0.00182281 2.12757874 0.00276184 C2.8501033 -0.00152328 3.57262787 -0.00580841 4.31704712 -0.01022339 C5.8460841 -0.01596928 7.37514843 -0.01646503 8.90419006 -0.01213074 C11.24410172 -0.00897362 13.58274565 -0.03241449 15.92250061 -0.05778503 C17.40752505 -0.0600583 18.8925529 -0.0607614 20.37757874 -0.05973816 C21.07765549 -0.06894791 21.77773224 -0.07815765 22.49902344 -0.08764648 C25.40674667 -0.05995303 27.36355433 -0.01037052 29.79579163 1.66609192 C30.81898499 3.30354309 30.81898499 3.30354309 30.63148499 5.86604309 C29.81898499 8.30354309 29.81898499 8.30354309 27.81898499 10.30354309 C23.27638221 10.70382727 18.71931858 10.63254959 14.161026 10.61921692 C11.89352752 10.61605986 9.62733739 10.63950069 7.36000061 10.66487122 C5.92054913 10.6671445 4.48109414 10.66784757 3.04164124 10.66682434 C1.72945618 10.6698053 0.41727112 10.67278625 -0.93467712 10.67585754 C-4.18101501 10.30354309 -4.18101501 10.30354309 -6.11289978 8.94099426 C-7.62509871 6.6227501 -7.52804688 5.01039167 -7.18101501 2.30354309 C-4.73006348 -0.14740844 -3.3477132 0.04902883 0 0 Z " fill="#FAFBFE" transform="translate(286.18101501464844,332.6964569091797)"/>
</svg>
